<?xml version="1.0" encoding="UTF-8" ?>
<svg version="1.1" width="32" height="32" xmlns="http://www.w3.org/2000/svg" shape-rendering="crispEdges">
<rect x="15" y="1" width="1" height="1" fill="#FFFFFF" />
<rect x="16" y="1" width="1" height="1" fill="#FFFFFF" />
<rect x="15" y="2" width="1" height="1" fill="#FFFFFF" />
<rect x="16" y="2" width="1" height="1" fill="#FFFFFF" />
<rect x="3" y="3" width="1" height="1" fill="#FFFFFF" />
<rect x="4" y="3" width="1" height="1" fill="#FFFFFF" />
<rect x="15" y="3" width="1" height="1" fill="#FFFFFF" />
<rect x="16" y="3" width="1" height="1" fill="#FFFFFF" />
<rect x="27" y="3" width="1" height="1" fill="#FFFFFF" />
<rect x="28" y="3" width="1" height="1" fill="#FFFFFF" />
<rect x="3" y="4" width="1" height="1" fill="#FFFFFF" />
<rect x="4" y="4" width="1" height="1" fill="#FFFFFF" />
<rect x="5" y="4" width="1" height="1" fill="#FFFFFF" />
<rect x="15" y="4" width="1" height="1" fill="#FFFFFF" />
<rect x="16" y="4" width="1" height="1" fill="#FFFFFF" />
<rect x="26" y="4" width="1" height="1" fill="#FFFFFF" />
<rect x="27" y="4" width="1" height="1" fill="#FFFFFF" />
<rect x="28" y="4" width="1" height="1" fill="#FFFFFF" />
<rect x="4" y="5" width="1" height="1" fill="#FFFFFF" />
<rect x="5" y="5" width="1" height="1" fill="#FFFFFF" />
<rect x="6" y="5" width="1" height="1" fill="#FFFFFF" />
<rect x="15" y="5" width="1" height="1" fill="#FFFFFF" />
<rect x="16" y="5" width="1" height="1" fill="#FFFFFF" />
<rect x="25" y="5" width="1" height="1" fill="#FFFFFF" />
<rect x="26" y="5" width="1" height="1" fill="#FFFFFF" />
<rect x="27" y="5" width="1" height="1" fill="#FFFFFF" />
<rect x="5" y="6" width="1" height="1" fill="#FFFFFF" />
<rect x="6" y="6" width="1" height="1" fill="#FFFFFF" />
<rect x="7" y="6" width="1" height="1" fill="#FFFFFF" />
<rect x="15" y="6" width="1" height="1" fill="#EFEFEF" />
<rect x="16" y="6" width="1" height="1" fill="#EFEFEF" />
<rect x="24" y="6" width="1" height="1" fill="#FFFFFF" />
<rect x="25" y="6" width="1" height="1" fill="#FFFFFF" />
<rect x="26" y="6" width="1" height="1" fill="#FFFFFF" />
<rect x="6" y="7" width="1" height="1" fill="#FFFFFF" />
<rect x="7" y="7" width="1" height="1" fill="#FFFFFF" />
<rect x="8" y="7" width="1" height="1" fill="#FFFFFF" />
<rect x="15" y="7" width="1" height="1" fill="#EFEFEF" />
<rect x="16" y="7" width="1" height="1" fill="#EFEFEF" />
<rect x="23" y="7" width="1" height="1" fill="#FFFFFF" />
<rect x="24" y="7" width="1" height="1" fill="#FFFFFF" />
<rect x="25" y="7" width="1" height="1" fill="#FFFFFF" />
<rect x="7" y="8" width="1" height="1" fill="#FFFFFF" />
<rect x="8" y="8" width="1" height="1" fill="#EFEFEF" />
<rect x="9" y="8" width="1" height="1" fill="#EFEFEF" />
<rect x="22" y="8" width="1" height="1" fill="#EFEFEF" />
<rect x="23" y="8" width="1" height="1" fill="#EFEFEF" />
<rect x="24" y="8" width="1" height="1" fill="#FFFFFF" />
<rect x="8" y="9" width="1" height="1" fill="#EFEFEF" />
<rect x="9" y="9" width="1" height="1" fill="#EFEFEF" />
<rect x="14" y="9" width="1" height="1" fill="#FFFFFF" />
<rect x="15" y="9" width="1" height="1" fill="#FFFFFF" />
<rect x="16" y="9" width="1" height="1" fill="#FFFFFF" />
<rect x="17" y="9" width="1" height="1" fill="#FFFFFF" />
<rect x="22" y="9" width="1" height="1" fill="#EFEFEF" />
<rect x="23" y="9" width="1" height="1" fill="#EFEFEF" />
<rect x="12" y="10" width="1" height="1" fill="#FFFFFF" />
<rect x="13" y="10" width="1" height="1" fill="#FFFFFF" />
<rect x="14" y="10" width="1" height="1" fill="#EFEFEF" />
<rect x="15" y="10" width="1" height="1" fill="#EFEFEF" />
<rect x="16" y="10" width="1" height="1" fill="#EFEFEF" />
<rect x="17" y="10" width="1" height="1" fill="#EFEFEF" />
<rect x="18" y="10" width="1" height="1" fill="#FFFFFF" />
<rect x="19" y="10" width="1" height="1" fill="#FFFFFF" />
<rect x="11" y="11" width="1" height="1" fill="#FFFFFF" />
<rect x="12" y="11" width="1" height="1" fill="#FFFFFF" />
<rect x="13" y="11" width="1" height="1" fill="#EFEFEF" />
<rect x="18" y="11" width="1" height="1" fill="#EFEFEF" />
<rect x="19" y="11" width="1" height="1" fill="#FFFFFF" />
<rect x="20" y="11" width="1" height="1" fill="#FFFFFF" />
<rect x="10" y="12" width="1" height="1" fill="#FFFFFF" />
<rect x="11" y="12" width="1" height="1" fill="#FFFFFF" />
<rect x="12" y="12" width="1" height="1" fill="#EFEFEF" />
<rect x="19" y="12" width="1" height="1" fill="#EFEFEF" />
<rect x="20" y="12" width="1" height="1" fill="#FFFFFF" />
<rect x="21" y="12" width="1" height="1" fill="#FFFFFF" />
<rect x="10" y="13" width="1" height="1" fill="#FFFFFF" />
<rect x="11" y="13" width="1" height="1" fill="#EFEFEF" />
<rect x="20" y="13" width="1" height="1" fill="#EFEFEF" />
<rect x="21" y="13" width="1" height="1" fill="#FFFFFF" />
<rect x="9" y="14" width="1" height="1" fill="#FFFFFF" />
<rect x="10" y="14" width="1" height="1" fill="#EFEFEF" />
<rect x="21" y="14" width="1" height="1" fill="#EFEFEF" />
<rect x="22" y="14" width="1" height="1" fill="#FFFFFF" />
<rect x="1" y="15" width="1" height="1" fill="#FFFFFF" />
<rect x="2" y="15" width="1" height="1" fill="#FFFFFF" />
<rect x="3" y="15" width="1" height="1" fill="#FFFFFF" />
<rect x="4" y="15" width="1" height="1" fill="#FFFFFF" />
<rect x="5" y="15" width="1" height="1" fill="#FFFFFF" />
<rect x="6" y="15" width="1" height="1" fill="#EFEFEF" />
<rect x="7" y="15" width="1" height="1" fill="#EFEFEF" />
<rect x="9" y="15" width="1" height="1" fill="#FFFFFF" />
<rect x="10" y="15" width="1" height="1" fill="#EFEFEF" />
<rect x="21" y="15" width="1" height="1" fill="#EFEFEF" />
<rect x="22" y="15" width="1" height="1" fill="#FFFFFF" />
<rect x="24" y="15" width="1" height="1" fill="#EFEFEF" />
<rect x="25" y="15" width="1" height="1" fill="#EFEFEF" />
<rect x="26" y="15" width="1" height="1" fill="#FFFFFF" />
<rect x="27" y="15" width="1" height="1" fill="#FFFFFF" />
<rect x="28" y="15" width="1" height="1" fill="#FFFFFF" />
<rect x="29" y="15" width="1" height="1" fill="#FFFFFF" />
<rect x="30" y="15" width="1" height="1" fill="#FFFFFF" />
<rect x="1" y="16" width="1" height="1" fill="#FFFFFF" />
<rect x="2" y="16" width="1" height="1" fill="#FFFFFF" />
<rect x="3" y="16" width="1" height="1" fill="#FFFFFF" />
<rect x="4" y="16" width="1" height="1" fill="#FFFFFF" />
<rect x="5" y="16" width="1" height="1" fill="#FFFFFF" />
<rect x="6" y="16" width="1" height="1" fill="#EFEFEF" />
<rect x="7" y="16" width="1" height="1" fill="#EFEFEF" />
<rect x="9" y="16" width="1" height="1" fill="#FFFFFF" />
<rect x="10" y="16" width="1" height="1" fill="#EFEFEF" />
<rect x="21" y="16" width="1" height="1" fill="#EFEFEF" />
<rect x="22" y="16" width="1" height="1" fill="#FFFFFF" />
<rect x="24" y="16" width="1" height="1" fill="#EFEFEF" />
<rect x="25" y="16" width="1" height="1" fill="#EFEFEF" />
<rect x="26" y="16" width="1" height="1" fill="#FFFFFF" />
<rect x="27" y="16" width="1" height="1" fill="#FFFFFF" />
<rect x="28" y="16" width="1" height="1" fill="#FFFFFF" />
<rect x="29" y="16" width="1" height="1" fill="#FFFFFF" />
<rect x="30" y="16" width="1" height="1" fill="#FFFFFF" />
<rect x="9" y="17" width="1" height="1" fill="#FFFFFF" />
<rect x="10" y="17" width="1" height="1" fill="#EFEFEF" />
<rect x="21" y="17" width="1" height="1" fill="#EFEFEF" />
<rect x="22" y="17" width="1" height="1" fill="#FFFFFF" />
<rect x="10" y="18" width="1" height="1" fill="#FFFFFF" />
<rect x="11" y="18" width="1" height="1" fill="#EFEFEF" />
<rect x="20" y="18" width="1" height="1" fill="#EFEFEF" />
<rect x="21" y="18" width="1" height="1" fill="#FFFFFF" />
<rect x="10" y="19" width="1" height="1" fill="#FFFFFF" />
<rect x="11" y="19" width="1" height="1" fill="#FFFFFF" />
<rect x="12" y="19" width="1" height="1" fill="#EFEFEF" />
<rect x="19" y="19" width="1" height="1" fill="#EFEFEF" />
<rect x="20" y="19" width="1" height="1" fill="#FFFFFF" />
<rect x="21" y="19" width="1" height="1" fill="#FFFFFF" />
<rect x="11" y="20" width="1" height="1" fill="#FFFFFF" />
<rect x="12" y="20" width="1" height="1" fill="#FFFFFF" />
<rect x="13" y="20" width="1" height="1" fill="#EFEFEF" />
<rect x="18" y="20" width="1" height="1" fill="#EFEFEF" />
<rect x="19" y="20" width="1" height="1" fill="#FFFFFF" />
<rect x="20" y="20" width="1" height="1" fill="#FFFFFF" />
<rect x="12" y="21" width="1" height="1" fill="#FFFFFF" />
<rect x="13" y="21" width="1" height="1" fill="#FFFFFF" />
<rect x="14" y="21" width="1" height="1" fill="#EFEFEF" />
<rect x="15" y="21" width="1" height="1" fill="#EFEFEF" />
<rect x="16" y="21" width="1" height="1" fill="#EFEFEF" />
<rect x="17" y="21" width="1" height="1" fill="#EFEFEF" />
<rect x="18" y="21" width="1" height="1" fill="#FFFFFF" />
<rect x="19" y="21" width="1" height="1" fill="#FFFFFF" />
<rect x="8" y="22" width="1" height="1" fill="#EFEFEF" />
<rect x="9" y="22" width="1" height="1" fill="#EFEFEF" />
<rect x="14" y="22" width="1" height="1" fill="#FFFFFF" />
<rect x="15" y="22" width="1" height="1" fill="#FFFFFF" />
<rect x="16" y="22" width="1" height="1" fill="#FFFFFF" />
<rect x="17" y="22" width="1" height="1" fill="#FFFFFF" />
<rect x="22" y="22" width="1" height="1" fill="#EFEFEF" />
<rect x="23" y="22" width="1" height="1" fill="#EFEFEF" />
<rect x="7" y="23" width="1" height="1" fill="#FFFFFF" />
<rect x="8" y="23" width="1" height="1" fill="#EFEFEF" />
<rect x="9" y="23" width="1" height="1" fill="#EFEFEF" />
<rect x="22" y="23" width="1" height="1" fill="#EFEFEF" />
<rect x="23" y="23" width="1" height="1" fill="#EFEFEF" />
<rect x="24" y="23" width="1" height="1" fill="#FFFFFF" />
<rect x="6" y="24" width="1" height="1" fill="#FFFFFF" />
<rect x="7" y="24" width="1" height="1" fill="#FFFFFF" />
<rect x="8" y="24" width="1" height="1" fill="#FFFFFF" />
<rect x="15" y="24" width="1" height="1" fill="#EFEFEF" />
<rect x="16" y="24" width="1" height="1" fill="#EFEFEF" />
<rect x="23" y="24" width="1" height="1" fill="#FFFFFF" />
<rect x="24" y="24" width="1" height="1" fill="#FFFFFF" />
<rect x="25" y="24" width="1" height="1" fill="#FFFFFF" />
<rect x="5" y="25" width="1" height="1" fill="#FFFFFF" />
<rect x="6" y="25" width="1" height="1" fill="#FFFFFF" />
<rect x="7" y="25" width="1" height="1" fill="#FFFFFF" />
<rect x="15" y="25" width="1" height="1" fill="#EFEFEF" />
<rect x="16" y="25" width="1" height="1" fill="#EFEFEF" />
<rect x="24" y="25" width="1" height="1" fill="#FFFFFF" />
<rect x="25" y="25" width="1" height="1" fill="#FFFFFF" />
<rect x="26" y="25" width="1" height="1" fill="#FFFFFF" />
<rect x="4" y="26" width="1" height="1" fill="#FFFFFF" />
<rect x="5" y="26" width="1" height="1" fill="#FFFFFF" />
<rect x="6" y="26" width="1" height="1" fill="#FFFFFF" />
<rect x="15" y="26" width="1" height="1" fill="#FFFFFF" />
<rect x="16" y="26" width="1" height="1" fill="#FFFFFF" />
<rect x="25" y="26" width="1" height="1" fill="#FFFFFF" />
<rect x="26" y="26" width="1" height="1" fill="#FFFFFF" />
<rect x="27" y="26" width="1" height="1" fill="#FFFFFF" />
<rect x="3" y="27" width="1" height="1" fill="#FFFFFF" />
<rect x="4" y="27" width="1" height="1" fill="#FFFFFF" />
<rect x="5" y="27" width="1" height="1" fill="#FFFFFF" />
<rect x="15" y="27" width="1" height="1" fill="#FFFFFF" />
<rect x="16" y="27" width="1" height="1" fill="#FFFFFF" />
<rect x="26" y="27" width="1" height="1" fill="#FFFFFF" />
<rect x="27" y="27" width="1" height="1" fill="#FFFFFF" />
<rect x="28" y="27" width="1" height="1" fill="#FFFFFF" />
<rect x="3" y="28" width="1" height="1" fill="#FFFFFF" />
<rect x="4" y="28" width="1" height="1" fill="#FFFFFF" />
<rect x="15" y="28" width="1" height="1" fill="#FFFFFF" />
<rect x="16" y="28" width="1" height="1" fill="#FFFFFF" />
<rect x="27" y="28" width="1" height="1" fill="#FFFFFF" />
<rect x="28" y="28" width="1" height="1" fill="#FFFFFF" />
<rect x="15" y="29" width="1" height="1" fill="#FFFFFF" />
<rect x="16" y="29" width="1" height="1" fill="#FFFFFF" />
<rect x="15" y="30" width="1" height="1" fill="#FFFFFF" />
<rect x="16" y="30" width="1" height="1" fill="#FFFFFF" />
</svg>