<?xml version="1.0" encoding="UTF-8" ?>
<svg version="1.1" width="32" height="32" xmlns="http://www.w3.org/2000/svg" shape-rendering="crispEdges">
<rect x="14" y="0" width="1" height="1" fill="#FFFFFF" />
<rect x="14" y="1" width="1" height="1" fill="#FFFFFF" />
<rect x="14" y="2" width="1" height="1" fill="#FFFFFF" />
<rect x="14" y="3" width="1" height="1" fill="#EFEFEF" />
<rect x="14" y="4" width="1" height="1" fill="#EFEFEF" />
<rect x="19" y="4" width="1" height="1" fill="#FFFFFF" />
<rect x="8" y="5" width="1" height="1" fill="#FFFFFF" />
<rect x="19" y="5" width="1" height="1" fill="#FFFFFF" />
<rect x="8" y="6" width="1" height="1" fill="#FFFFFF" />
<rect x="19" y="6" width="1" height="1" fill="#FFFFFF" />
<rect x="8" y="7" width="1" height="1" fill="#FFFFFF" />
<rect x="19" y="7" width="1" height="1" fill="#EFEFEF" />
<rect x="26" y="7" width="1" height="1" fill="#FFFFFF" />
<rect x="8" y="8" width="1" height="1" fill="#EFEFEF" />
<rect x="19" y="8" width="1" height="1" fill="#EFEFEF" />
<rect x="26" y="8" width="1" height="1" fill="#FFFFFF" />
<rect x="8" y="9" width="1" height="1" fill="#EFEFEF" />
<rect x="26" y="9" width="1" height="1" fill="#FFFFFF" />
<rect x="11" y="10" width="1" height="1" fill="#FFFFFF" />
<rect x="12" y="10" width="1" height="1" fill="#FFFFFF" />
<rect x="13" y="10" width="1" height="1" fill="#FFFFFF" />
<rect x="26" y="10" width="1" height="1" fill="#EFEFEF" />
<rect x="3" y="11" width="1" height="1" fill="#FFFFFF" />
<rect x="10" y="11" width="1" height="1" fill="#FFFFFF" />
<rect x="11" y="11" width="1" height="1" fill="#FFFFFF" />
<rect x="12" y="11" width="1" height="1" fill="#EFEFEF" />
<rect x="13" y="11" width="1" height="1" fill="#FFFFFF" />
<rect x="14" y="11" width="1" height="1" fill="#FFFFFF" />
<rect x="15" y="11" width="1" height="1" fill="#FFFFFF" />
<rect x="26" y="11" width="1" height="1" fill="#EFEFEF" />
<rect x="3" y="12" width="1" height="1" fill="#FFFFFF" />
<rect x="10" y="12" width="1" height="1" fill="#FFFFFF" />
<rect x="11" y="12" width="1" height="1" fill="#EFEFEF" />
<rect x="13" y="12" width="1" height="1" fill="#EFEFEF" />
<rect x="14" y="12" width="1" height="1" fill="#EFEFEF" />
<rect x="15" y="12" width="1" height="1" fill="#EFEFEF" />
<rect x="16" y="12" width="1" height="1" fill="#FFFFFF" />
<rect x="17" y="12" width="1" height="1" fill="#FFFFFF" />
<rect x="18" y="12" width="1" height="1" fill="#FFFFFF" />
<rect x="3" y="13" width="1" height="1" fill="#FFFFFF" />
<rect x="9" y="13" width="1" height="1" fill="#FFFFFF" />
<rect x="10" y="13" width="1" height="1" fill="#EFEFEF" />
<rect x="16" y="13" width="1" height="1" fill="#EFEFEF" />
<rect x="17" y="13" width="1" height="1" fill="#EFEFEF" />
<rect x="18" y="13" width="1" height="1" fill="#EFEFEF" />
<rect x="19" y="13" width="1" height="1" fill="#FFFFFF" />
<rect x="20" y="13" width="1" height="1" fill="#FFFFFF" />
<rect x="3" y="14" width="1" height="1" fill="#EFEFEF" />
<rect x="9" y="14" width="1" height="1" fill="#FFFFFF" />
<rect x="10" y="14" width="1" height="1" fill="#EFEFEF" />
<rect x="19" y="14" width="1" height="1" fill="#EFEFEF" />
<rect x="20" y="14" width="1" height="1" fill="#EFEFEF" />
<rect x="21" y="14" width="1" height="1" fill="#FFFFFF" />
<rect x="22" y="14" width="1" height="1" fill="#FFFFFF" />
<rect x="23" y="14" width="1" height="1" fill="#FFFFFF" />
<rect x="3" y="15" width="1" height="1" fill="#EFEFEF" />
<rect x="8" y="15" width="1" height="1" fill="#FFFFFF" />
<rect x="9" y="15" width="1" height="1" fill="#EFEFEF" />
<rect x="21" y="15" width="1" height="1" fill="#EFEFEF" />
<rect x="22" y="15" width="1" height="1" fill="#FFFFFF" />
<rect x="23" y="15" width="1" height="1" fill="#FFFFFF" />
<rect x="24" y="15" width="1" height="1" fill="#FFFFFF" />
<rect x="8" y="16" width="1" height="1" fill="#FFFFFF" />
<rect x="9" y="16" width="1" height="1" fill="#EFEFEF" />
<rect x="22" y="16" width="1" height="1" fill="#EFEFEF" />
<rect x="23" y="16" width="1" height="1" fill="#FFFFFF" />
<rect x="24" y="16" width="1" height="1" fill="#FFFFFF" />
<rect x="7" y="17" width="1" height="1" fill="#FFFFFF" />
<rect x="8" y="17" width="1" height="1" fill="#EFEFEF" />
<rect x="22" y="17" width="1" height="1" fill="#EFEFEF" />
<rect x="23" y="17" width="1" height="1" fill="#FFFFFF" />
<rect x="7" y="18" width="1" height="1" fill="#FFFFFF" />
<rect x="8" y="18" width="1" height="1" fill="#EFEFEF" />
<rect x="22" y="18" width="1" height="1" fill="#EFEFEF" />
<rect x="23" y="18" width="1" height="1" fill="#FFFFFF" />
<rect x="6" y="19" width="1" height="1" fill="#FFFFFF" />
<rect x="7" y="19" width="1" height="1" fill="#FFFFFF" />
<rect x="8" y="19" width="1" height="1" fill="#EFEFEF" />
<rect x="21" y="19" width="1" height="1" fill="#EFEFEF" />
<rect x="22" y="19" width="1" height="1" fill="#FFFFFF" />
<rect x="23" y="19" width="1" height="1" fill="#FFFFFF" />
<rect x="6" y="20" width="1" height="1" fill="#FFFFFF" />
<rect x="7" y="20" width="1" height="1" fill="#EFEFEF" />
<rect x="21" y="20" width="1" height="1" fill="#EFEFEF" />
<rect x="22" y="20" width="1" height="1" fill="#FFFFFF" />
<rect x="6" y="21" width="1" height="1" fill="#FFFFFF" />
<rect x="7" y="21" width="1" height="1" fill="#EFEFEF" />
<rect x="21" y="21" width="1" height="1" fill="#EFEFEF" />
<rect x="22" y="21" width="1" height="1" fill="#FFFFFF" />
<rect x="5" y="22" width="1" height="1" fill="#FFFFFF" />
<rect x="6" y="22" width="1" height="1" fill="#FFFFFF" />
<rect x="7" y="22" width="1" height="1" fill="#EFEFEF" />
<rect x="20" y="22" width="1" height="1" fill="#EFEFEF" />
<rect x="21" y="22" width="1" height="1" fill="#FFFFFF" />
<rect x="5" y="23" width="1" height="1" fill="#FFFFFF" />
<rect x="6" y="23" width="1" height="1" fill="#FFFFFF" />
<rect x="7" y="23" width="1" height="1" fill="#FFFFFF" />
<rect x="8" y="23" width="1" height="1" fill="#EFEFEF" />
<rect x="20" y="23" width="1" height="1" fill="#EFEFEF" />
<rect x="21" y="23" width="1" height="1" fill="#FFFFFF" />
<rect x="6" y="24" width="1" height="1" fill="#FFFFFF" />
<rect x="7" y="24" width="1" height="1" fill="#FFFFFF" />
<rect x="8" y="24" width="1" height="1" fill="#FFFFFF" />
<rect x="9" y="24" width="1" height="1" fill="#EFEFEF" />
<rect x="10" y="24" width="1" height="1" fill="#EFEFEF" />
<rect x="19" y="24" width="1" height="1" fill="#EFEFEF" />
<rect x="20" y="24" width="1" height="1" fill="#FFFFFF" />
<rect x="9" y="25" width="1" height="1" fill="#FFFFFF" />
<rect x="10" y="25" width="1" height="1" fill="#FFFFFF" />
<rect x="11" y="25" width="1" height="1" fill="#EFEFEF" />
<rect x="12" y="25" width="1" height="1" fill="#EFEFEF" />
<rect x="13" y="25" width="1" height="1" fill="#EFEFEF" />
<rect x="19" y="25" width="1" height="1" fill="#EFEFEF" />
<rect x="20" y="25" width="1" height="1" fill="#FFFFFF" />
<rect x="11" y="26" width="1" height="1" fill="#FFFFFF" />
<rect x="12" y="26" width="1" height="1" fill="#FFFFFF" />
<rect x="13" y="26" width="1" height="1" fill="#FFFFFF" />
<rect x="14" y="26" width="1" height="1" fill="#EFEFEF" />
<rect x="15" y="26" width="1" height="1" fill="#EFEFEF" />
<rect x="16" y="26" width="1" height="1" fill="#EFEFEF" />
<rect x="18" y="26" width="1" height="1" fill="#EFEFEF" />
<rect x="19" y="26" width="1" height="1" fill="#FFFFFF" />
<rect x="14" y="27" width="1" height="1" fill="#FFFFFF" />
<rect x="15" y="27" width="1" height="1" fill="#FFFFFF" />
<rect x="16" y="27" width="1" height="1" fill="#FFFFFF" />
<rect x="17" y="27" width="1" height="1" fill="#EFEFEF" />
<rect x="18" y="27" width="1" height="1" fill="#FFFFFF" />
<rect x="19" y="27" width="1" height="1" fill="#FFFFFF" />
<rect x="16" y="28" width="1" height="1" fill="#FFFFFF" />
<rect x="17" y="28" width="1" height="1" fill="#FFFFFF" />
<rect x="18" y="28" width="1" height="1" fill="#FFFFFF" />
</svg>